<?xml version="1.0" encoding="utf-8"?>
<!-- Generator: Adobe Illustrator 25.1.0, SVG Export Plug-In . SVG Version: 6.00 Build 0)  -->
<svg version="1.1" id="Outline" xmlns="http://www.w3.org/2000/svg" xmlns:xlink="http://www.w3.org/1999/xlink" x="0px" y="0px"
	 viewBox="0 0 512 512" style="enable-background:new 0 0 512 512;" xml:space="preserve">
<style type="text/css">
	.st0{fill:#FFFFFF;}
	.st1{fill:#F2F2F2;}
	.st2{fill:#BC0F2A;}
	.st3{fill:#F45254;}
	.st4{opacity:0.5;}
	.st5{fill:#F9ACB0;}
	.st6{fill:#603813;}
</style>
<path class="st0" d="M424.8,414.8c-21.8,30.6-63.3,58.1-135.7,78.1c-21.6,6-44.4,6-66.1,0c-72.5-20-114-47.5-135.7-78.1
	c0,0-13.2-60.3,11.1-112.7c34.1-73.6,143.3-183.9,143.3-183.9c5-0.5,9.8-0.8,14.4-0.8s9.4,0.2,14.4,0.8c0,0,113.4,86.9,142.5,162.6
	C445.4,365.3,424.8,414.8,424.8,414.8L424.8,414.8z"/>
<path class="st1" d="M424.8,414.8c-21.8,30.6-63.3,58.1-135.7,78.1c-10.8,3-21.9,4.5-33,4.5v-380c4.6,0,9.4,0.2,14.4,0.8
	c0,0,113.3,86.9,142.5,162.6C445.4,365.3,424.8,414.8,424.8,414.8L424.8,414.8z"/>
<path class="st2" d="M470,14.7c-79.2,11.4-130.9,82.8-151.3,116.8c-16.6-7.6-33.1-11.8-48.2-13.4c1.6,11.4,19.8,28.7,22.2,44.6
	c8.3,56.4,0.7,106.5,9.2,144.6c5.6,25,47.3,6.5,86.8,30.2c35.9,21.5,36.2,77.2,36.2,77.2c29.8-41.9,22.7-89.7,7.5-132.4
	C550.9,176.4,470,14.7,470,14.7L470,14.7z"/>
<path class="st3" d="M42,14.7c0,0-80.9,161.8,37.8,267.7c-15.2,42.7-22.3,90.5,7.5,132.4c0,0,0.4-55.7,36.3-77.2
	c39.5-23.7,81.2-5.2,86.8-30.2c8.4-38.1,0.8-88.2,9.2-144.6c2.4-15.9,20.5-33.2,22.2-44.6c-15.1,1.6-31.7,5.8-48.3,13.4
	C172.9,97.6,121.2,26.1,42,14.7L42,14.7z"/>
<g class="st4">
	<path class="st5" d="M150.5,160.1c-17.3,15.8-33.1,36.8-45.7,64c-0.9,2-1.9,4-2.8,6.1c-49.2-47.5-22.3-129-22.3-129
		C122.8,107.5,147.5,154.1,150.5,160.1L150.5,160.1z"/>
	<path class="st3" d="M410,230.2c-0.9-2.1-1.9-4.1-2.8-6.1c-12.6-27.3-28.5-48.2-45.7-64c3-6,27.7-52.6,70.9-58.9
		C432.4,101.2,459.2,182.7,410,230.2L410,230.2z"/>
</g>
<path class="st2" d="M257.4,364c-25.8,0-48.6,1.5-41.9,30.7c4.3,18.8,31.7,32.3,41.9,32.3c10.2,0,37.6-13.5,41.9-32.3
	C306,365.6,283.3,364,257.4,364z"/>
<path class="st6" d="M299.3,394.7c-4.3,18.9-31.7,32.3-41.9,32.3v-63C283.3,364,306,365.6,299.3,394.7z"/>
<g>
	<g>
		<ellipse cx="191" cy="300.7" rx="22.7" ry="22.7"/>
	</g>
	<g>
		<ellipse cx="321.5" cy="300.5" rx="22.7" ry="22.7"/>
	</g>
</g>
<circle class="st0" cx="194.2" cy="293" r="5.9"/>
<circle class="st0" cx="318.8" cy="293" r="5.9"/>
</svg>
