<?xml version="1.0" encoding="utf-8"?>
<!-- Generator: Adobe Illustrator 25.1.0, SVG Export Plug-In . SVG Version: 6.00 Build 0)  -->
<svg version="1.1" id="Capa_1" xmlns="http://www.w3.org/2000/svg" xmlns:xlink="http://www.w3.org/1999/xlink" x="0px" y="0px"
	 viewBox="0 0 512 512" style="enable-background:new 0 0 512 512;" xml:space="preserve">
<style type="text/css">
	.st0{fill:#F45254;}
	.st1{fill:#CCCCCC;}
</style>
<g>
	<g>
		<path class="st0" d="M256,120c-8.3,0-15,6.7-15,15v60c0,8.3,6.7,15,15,15s15-6.7,15-15v-60C271,126.7,264.3,120,256,120z"/>
	</g>
</g>
<g>
	<g>
		<path class="st1" d="M271,0v92.8c17.4,6.2,30,22.7,30,42.2v60c0,4.3-0.8,8.3-1.9,12.3c36.2-8,69.5-26,96.3-52.9l22.3-22.3
			C403.4,61.6,344,6.6,271,0z"/>
	</g>
</g>
<g>
	<g>
		<path class="st1" d="M416.6,175.6C372.3,219.9,314.2,242,256,242s-116.3-22.1-160.6-66.4l-4.4-4.4V347c0,91,74,165,165,165
			s165-74,165-165V171.2L416.6,175.6z"/>
	</g>
</g>
<g>
	<g>
		<path class="st1" d="M94.3,132.1l22.3,22.3c26.8,26.8,60.1,44.8,96.3,52.9c-1.1-3.9-1.9-8-1.9-12.3v-60c0-19.5,12.6-36,30-42.2V0
			C168,6.6,108.6,61.6,94.3,132.1z"/>
	</g>
</g>
</svg>
