<?xml version="1.0" encoding="utf-8"?>
<!-- Generator: Adobe Illustrator 25.1.0, SVG Export Plug-In . SVG Version: 6.00 Build 0)  -->
<svg version="1.1" id="Outline" xmlns="http://www.w3.org/2000/svg" xmlns:xlink="http://www.w3.org/1999/xlink" x="0px" y="0px"
	 viewBox="0 0 512 512" style="enable-background:new 0 0 512 512;" xml:space="preserve">
<style type="text/css">
	.st0{fill:#7FB241;}
	.st1{fill:#603813;}
	.st2{fill:#F45254;}
	.st3{fill:#BC0F2A;}
	.st4{fill:#FFFFFF;}
	.st5{fill:#FF5364;}
	.st6{fill:#F9ACB0;}
</style>
<path class="st0" d="M170.1,119.3c-52.7,4.6-91.5-34.2-86.9-86.9C135.9,27.8,174.7,66.6,170.1,119.3z"/>
<path class="st1" d="M172.1,156c-4.5-1.1-8.1-5-8.7-9.9c-2.5-22.6,4-44.7,18.2-62.5c14.2-17.7,34.4-28.8,57-31.3
	c6.3-0.7,12,3.9,12.7,10.2c0.7,6.3-3.9,12-10.2,12.7c-16.4,1.8-31.2,9.9-41.6,22.8s-15,29.1-13.2,45.5c0.7,6.3-3.9,12-10.2,12.7
	C174.8,156.4,173.4,156.3,172.1,156z"/>
<path class="st2" d="M257.5,119.2c-12.6-3.3-25.6-2.7-38.3,1.4c-32.8,10.6-67.6,10.6-100.3,0c-12.7-4.1-25.7-4.8-38.3-1.4
	c-50.2,13.4-74.4,85.9-54.1,162.1S103.8,408.3,154,394.9c0.1,0,0.1,0,0.2,0c9.7-2.6,19.9-2.6,29.6,0c0.1,0,0.1,0,0.2,0
	c50.2,13.4,107.3-37.5,127.6-113.7C331.8,205.1,307.6,132.5,257.5,119.2z"/>
<path class="st3" d="M311.5,281.2c-20.3,76.2-77.4,127-127.6,113.7h-0.1c-9.7-2.7-19.9-2.7-29.7,0H154c-18.9,5-38.7,0.9-57.1-10.1
	c98.4-38,172.1-134,187.5-250.9C315.6,161.9,327.8,220.4,311.5,281.2z"/>
<path class="st4" d="M96.7,137.4c-4.4,8-7.3,14.7-9.3,21.3c-2.1,6.5-3.4,12.8-4.2,19.3c-0.9,6.5-1.3,13.1-1.4,20.3
	c-0.1,7.2,0.3,14.7,0.4,23.9c-8-4.5-13.8-11.8-17.3-20.1c-3.5-8.3-4.9-17.8-3.6-27.1c1.2-9.2,5.1-18.3,11.4-25.4
	C78.9,142.6,87.5,137.6,96.7,137.4z"/>
<g id="Page-1">
	<g id="_x30_06---Watermelon">
		<path id="Shape" class="st0" d="M455.7,415.2c-57.2,72.4-161.6,86.4-235.9,31.6S128,288.2,180.3,212.1c0.9-1.3,2.3-2.2,3.9-2.4
			c1.6-0.2,3.2,0.2,4.5,1.1l9.4,7l4.8,3.5c-48.4,65.6-34.4,158,31.2,206.4s158,34.4,206.4-31.2l4.7,3.5l9.4,6.9
			c1.3,0.9,2.1,2.4,2.4,3.9C457.1,412.4,456.7,414,455.7,415.2z"/>
		<path id="Shape_1_" class="st5" d="M440.4,396.5C392,462,299.6,476,234,427.6s-79.5-140.8-31.2-206.4l4.7,3.5l61,45l9.6,7.1
			l135.2,99.7l0.1,0.1l12.3,9.1l9.9,7.3L440.4,396.5z"/>
		<path id="Shape_2_" class="st3" d="M413.4,376.6c-12.7,2.8-25.7,4.3-38.7,4.2c-46.3,0-90.9-17.9-124.4-49.9
			c-3.4-3.3-5.4-7.8-5.5-12.6c0-4.8,1.8-9.4,5.1-12.8l28.3-28.7L413.4,376.6L413.4,376.6z"/>
		<g>
			<path id="Shape_3_" class="st3" d="M268.9,400.1c-3.8,5.8-11.6,7.4-17.4,3.7c-5.3-4.5-6-12.4-1.6-17.7
				c4.4-5.9,17.4-14.7,22.6-10.8C277.8,379.2,273.2,394.2,268.9,400.1L268.9,400.1z"/>
			<path id="Shape_4_" class="st3" d="M321.6,414.3c0,4.6-2.6,8.8-6.7,10.8s-9,1.4-12.6-1.4s-5.2-7.5-4.1-12
				c0.8-7.3,7.7-21.4,14.2-20.7C318.8,391.7,322.4,407,321.6,414.3L321.6,414.3z"/>
			<path id="Shape_5_" class="st3" d="M374.3,400.1c2.3,4,2.2,8.9-0.4,12.7c-2.6,3.8-7.1,5.8-11.6,5.1c-4.5-0.7-8.3-3.9-9.6-8.3
				c-3-6.7-4-22.4,2-25C360.6,382,371.4,393.4,374.3,400.1L374.3,400.1z"/>
			<path id="Shape_6_" class="st3" d="M218.8,285.4c-6.8-1.2-13.3,3.4-14.5,10.3c-0.3,6.9,5,12.8,11.9,13.2
				c7.3,0.8,22.6-2.8,23.3-9.3C240.2,293.1,226.1,286.2,218.8,285.4L218.8,285.4z"/>
			<path id="Shape_7_" class="st3" d="M220.8,339.9c-4.4,1.3-7.6,5.1-8.3,9.6c-0.7,4.5,1.3,9.1,5.1,11.6c3.8,2.6,8.7,2.7,12.7,0.4
				c6.7-3,18.2-13.7,15.6-19.7C243.2,335.9,227.6,337,220.8,339.9z"/>
		</g>
		<path id="Shape_8_" class="st0" d="M490.9,322.4c-65,62.1-167.4,62.1-232.4-0.1c-2.4-2.3-2.4-6.2-0.1-8.6l8.3-8.4l4.1-4.2
			c27.2,28.2,64.7,44.1,103.9,44.1s76.7-15.9,103.9-44.1l4.1,4.2l8.3,8.4c1.1,1.1,1.8,2.7,1.8,4.3
			C492.7,319.8,492.1,321.3,490.9,322.4L490.9,322.4z"/>
		<path id="Shape_9_" class="st2" d="M478.6,301.2c-27.2,28.2-64.7,44.1-103.9,44.1s-76.7-15.9-103.9-44.1l4.1-4.2l95.7-97.4
			c1.1-1.1,2.6-1.8,4.2-1.8c1.6,0,3.1,0.6,4.2,1.8l95.6,97.4L478.6,301.2z"/>
		<path id="Shape_10_" class="st3" d="M336.3,294.9c-2.2,6.6,1.3,13.8,7.9,16.1c3.3,0.7,6.7,0,9.5-1.9s4.7-4.7,5.3-8
			c1.9-7.2,0.6-23.1-5.7-24.8C347.2,274.6,338.2,287.7,336.3,294.9L336.3,294.9z"/>
		<path id="Shape_11_" class="st3" d="M390.4,301.1c0.6,3.3,2.6,6.2,5.3,8c2.8,1.9,6.2,2.5,9.4,1.9c6.6-2.3,10.1-9.5,7.9-16.1
			c-1.9-7.2-10.8-20.3-17.1-18.6C389.7,278,388.5,293.9,390.4,301.1L390.4,301.1z"/>
		<path id="Shape_12_" class="st6" d="M445.1,399.9c-50.6,67.3-146,81.3-213.7,31.3S148.8,286,198.1,217.8l4.8,3.5l4.7,3.5
			c-46,63-32.5,151.3,30.3,197.7s151.2,33.2,197.8-29.4l4.7,3.5L445.1,399.9z"/>
		<path id="Shape_13_" class="st6" d="M482.7,305.4c-28.3,29.3-67.2,45.8-107.9,45.8h-0.1c-40.7,0-79.7-16.6-108.1-45.8l4.1-4.2
			l4.1-4.2l0.1,0.1c26.2,27,62.1,42.3,99.8,42.3h0.1c37.6,0,73.5-15.3,99.6-42.3l0.1-0.1l4.1,4.2L482.7,305.4z"/>
	</g>
</g>
</svg>
