<svg id="Layer_1" height="512" viewBox="0 0 512 512" width="512" xmlns="http://www.w3.org/2000/svg" data-name="Layer 1"><path d="m424 320a48.792 48.792 0 0 1 47.845 39.223l.155.777h4.642a27.358 27.358 0 0 0 27.358-27.358 60 60 0 0 0 -42.759-57.47l-37.241-11.172v-88a168 168 0 0 0 -168.086-168c-93.014.047-167.914 76.6-167.914 169.608v86.392l-37.241 11.172a60 60 0 0 0 -42.759 57.47 27.358 27.358 0 0 0 27.358 27.358h4.642l.155-.777a48.792 48.792 0 0 1 47.845-39.223v28.13a60 60 0 0 1 -4.519 22.845l-51.481 125.025c37.335 0 37.335-18 74.671-18s37.335 20 74.671 20 37.334-20 74.667-20 37.333 20 74.665 20 37.326-20 74.662-20 37.332 18 74.664 18l-51.481-125.025a60 60 0 0 1 -4.519-22.845z" fill="#e0e0e0"/><circle cx="184" cy="136" fill="#5b223c" r="24"/><circle cx="328" cy="136" fill="#5b223c" r="24"/><path d="m304 208a48 48 0 0 1 -96 0z" fill="#db0534"/><path d="m232 224v-16" fill="none" stroke="#fff" stroke-miterlimit="10" stroke-width="16"/><path d="m280 224v-16" fill="none" stroke="#fff" stroke-miterlimit="10" stroke-width="16"/><g fill="#fff"><path d="m247.683 8.21c-89.16 4.4-159.683 79.146-159.683 169.398v86.392l-37.241 11.172a59.994 59.994 0 0 0 -42.62 53.563c30.423-35.848 135.861-64.735 135.861-64.735-31.106-163.307 96.528-251.018 103.683-255.79z" opacity=".3"/><path d="m136 344c0-32-48-24-48-24v28.13a60 60 0 0 1 -4.519 22.845l-51.481 125.025c34.738 0 37.171-15.575 67.413-17.743 9.671-27.927 36.587-108.005 36.587-134.257z" opacity=".3"/></g></svg>