<?xml version="1.0" encoding="utf-8"?>
<!-- Generator: Adobe Illustrator 25.1.0, SVG Export Plug-In . SVG Version: 6.00 Build 0)  -->
<svg version="1.1" id="Layer_1" xmlns="http://www.w3.org/2000/svg" xmlns:xlink="http://www.w3.org/1999/xlink" x="0px" y="0px"
	 viewBox="0 0 512 512" style="enable-background:new 0 0 512 512;" xml:space="preserve">
<style type="text/css">
	.st0{fill:#266ABD;}
	.st1{fill:#4097F0;}
	.st2{fill:#FAFAFA;}
	.st3{opacity:0.1;}
	.st4{fill:#FFFFFF;}
</style>
<g>
	<path class="st0" d="M350.4,265.9c-29.2-0.1-61,0-94.4,0c-33.4,0-65.2-0.1-94.4,0L2.9,276.4V287c0,23.3,52.3,84.4,253.1,84.4
		s253.1-61.1,253.1-84.4v-9.5L350.4,265.9z"/>
	<path class="st0" d="M509.1,276.4c0,23.3-52.3,84.4-253.1,84.4S2.9,299.7,2.9,276.4c0-23.3,113.3-21.1,253.1-21.1
		C395.8,255.4,509.1,253.1,509.1,276.4z"/>
</g>
<path class="st1" d="M509.1,276.4c0,23.3-52.3,84.4-253.1,84.4S2.9,299.7,2.9,276.4c0-23.3,113.3-21.1,253.1-21.1
	C395.8,255.4,509.1,253.1,509.1,276.4z"/>
<path class="st1" d="M435.3,276.4c0,0-66.9,31.6-179.2,31.6c-112.3,0-179.6-31.6-179.6-31.6s51.4-178.8,67.1-178.8
	s102.3,31.1,112.3,31.1c10,0,102.2-37.2,112.7-31.1C379.1,103.8,435.3,276.4,435.3,276.4z"/>
<path class="st2" d="M256.1,287c-93.6,0-155.9-22-174.1-29.3c-3.4,11.5-5.5,18.7-5.5,18.7s67.3,31.6,179.6,31.6
	c112.3,0,179.2-31.6,179.2-31.6s-2.3-7.1-6.1-18.5C410.3,265.5,348.6,287,256.1,287z"/>
<g class="st3">
	<path class="st4" d="M143.5,118.8c15.7,0,102.3,31.1,112.3,31.1c10,0,102.2-37.2,112.7-31.1c8.4,4.9,45.8,115.5,60.6,160.3
		c4-1.6,6.1-2.6,6.1-2.6s-56.2-172.7-66.7-178.8c-10.5-6.1-102.7,31.1-112.7,31.1c-10,0-96.7-31.1-112.3-31.1S76.5,276.4,76.5,276.4
		s1.9,0.9,5.5,2.3C95.7,232.9,131,118.8,143.5,118.8z"/>
</g>
</svg>
