<?xml version="1.0" encoding="utf-8"?>
<!-- Generator: Adobe Illustrator 25.1.0, SVG Export Plug-In . SVG Version: 6.00 Build 0)  -->
<svg version="1.1" id="Outline" xmlns="http://www.w3.org/2000/svg" xmlns:xlink="http://www.w3.org/1999/xlink" x="0px" y="0px"
	 viewBox="0 0 512 512" style="enable-background:new 0 0 512 512;" xml:space="preserve">
<style type="text/css">
	.st0{fill:#BC0F2A;}
	.st1{fill:#FFFFFF;}
	.st2{fill:#FAFAFA;}
	.st3{fill:#F45254;}
</style>
<path class="st0" d="M42,479.1c4.7-1.2,9.2-2.3,13.4-4.1c4.3-1.5,8.2-3.5,11.9-5.9l11.5-7.8c4.2-2.7,9.1-5.2,14.2-7
	c10.4-3.6,20.5-4.9,31.6-4.8c11-0.2,23.6,4.3,32,8.3c8.5,3.8,13.6,5,20.9,5.2c7.1,0.1,15.3-0.4,20.9-2.6c3-1,5.6-2.2,9.1-4.1
	c3.4-1.9,7.9-4.6,13.3-7.1c5.4-2.5,11.7-4.6,17.7-5.6c6.1-1.2,11.9-1.5,17.5-1.7c5.7,0.1,11.4,0.4,17.5,1.7c6,1,12.3,3.1,17.7,5.6
	c5.4,2.5,9.8,5.2,13.3,7.1c3.5,2,6.2,3.1,9.1,4.1c5.6,2.1,13.7,2.6,20.9,2.5c7.3-0.3,12.4-1.4,20.8-5.2c8.4-4,21.1-8.4,32.1-8.3
	c11-0.1,21.2,1.2,31.6,4.8c5.1,1.8,10,4.3,14.2,7l11.5,7.8c3.7,2.4,7.6,4.4,11.9,5.9c4.2,1.8,8.8,2.8,13.4,4.1
	c-9.2,2.2-19.4,2.7-29.4,0.3c-5-1-9.6-2.7-13.9-3.8c-4.3-1.2-8.2-2-12.2-2.2c-7.8-0.6-16.6,0.4-24,2.2c-7.7,1.8-12.6,4.9-20.4,9.9
	c-3.9,2.5-8.9,5.5-14.5,7.8c-5.6,2.3-11.6,3.9-17.3,4.7c-5.8,1-11.2,1.3-16.9,1.2c-2.8,0-5.8-0.3-8.7-0.5c-3-0.5-6-0.8-9-1.6
	c-6-1.3-12-3.8-16.8-6.2c-4.8-2.4-8.5-4.3-11.6-5.5c-3.1-1.3-5.8-2.2-9-2.6c-3.1-0.6-6.6-0.7-10.3-0.8c-3.7,0.1-7.2,0.2-10.3,0.8
	c-3.2,0.5-5.8,1.4-9,2.6c-3.1,1.2-6.8,3.2-11.6,5.5c-4.8,2.4-10.8,4.8-16.8,6.2c-3,0.8-6,1.1-9,1.6c-2.9,0.2-5.9,0.6-8.7,0.5
	c-5.7,0.1-11.1-0.2-16.9-1.2c-5.7-0.8-11.7-2.4-17.2-4.7c-5.6-2.3-10.6-5.3-14.5-7.8c-7.8-5.1-12.7-8.1-20.4-9.9
	c-7.5-1.7-16.3-2.7-24-2.1c-4,0.2-7.9,1-12.2,2.2c-4.3,1.1-8.9,2.8-13.9,3.8C61.4,481.7,51.2,481.3,42,479.1z"/>
<g>
	<path class="st1" d="M462.2,348.4l0.1,0.7h4.4c14.4,0,26.1-11.7,26.1-26.1c0-25.3-16.6-47.6-40.9-54.9l-35.6-10.7v-84.1
		c0-88.6-71.9-160.5-160.5-160.5c0,0-0.1,0-0.1,0c-3.3,0-6.6,0.1-9.9,0.3c-109.9,56-118.2,115.2-121.8,321.2
		c-1.1,62.4-7.7,102.3-16.4,127.7c1.7-0.1,3.5-0.2,5.5-0.2c35.7,0,35.7,19.1,71.3,19.1c35.7,0,35.7-19.1,71.3-19.1
		s35.7,19.1,71.3,19.1c35.7,0,35.7-19.1,71.3-19.1c35.7,0,35.7,17.2,71.3,17.2l-49.2-119.5c-2.9-6.9-4.3-14.3-4.3-21.8v-26.9
		C438.7,310.9,457.9,326.6,462.2,348.4z"/>
	<path class="st2" d="M246,13.2C161.8,18.4,95.5,89.3,95.5,174.9v82.5l-35.6,10.7c-24.2,7.3-40.9,29.6-40.9,54.9
		c0,14.4,11.7,26.1,26.1,26.1h4.4l0.1-0.7c4.4-21.8,23.5-37.5,45.7-37.5v26.9c0,7.5-1.5,14.9-4.3,21.8L42,479.1
		c33.7,0,35.6-15.4,65.9-17c8.7-25.4,15.3-65.3,16.4-127.7C127.8,128.4,136.1,69.2,246,13.2z"/>
</g>
<circle class="st3" cx="192.9" cy="135.1" r="22.9"/>
<circle class="st3" cx="302" cy="135.1" r="22.9"/>
<path class="st3" d="M221,213.9c-9.7,0-16.5-10-12.5-18.9c7.2-15.9,23.2-27,41.8-27s34.6,11.1,41.8,27c4,8.8-2.8,18.9-12.5,18.9H221
	z"/>
<circle class="st1" cx="196.3" cy="122.6" r="5.7"/>
<circle class="st1" cx="293.3" cy="122.6" r="5.7"/>
</svg>
