<?xml version="1.0" encoding="utf-8"?>
<!-- Generator: Adobe Illustrator 25.1.0, SVG Export Plug-In . SVG Version: 6.00 Build 0)  -->
<svg version="1.1" id="Outline" xmlns="http://www.w3.org/2000/svg" xmlns:xlink="http://www.w3.org/1999/xlink" x="0px" y="0px"
	 viewBox="0 0 512 512" style="enable-background:new 0 0 512 512;" xml:space="preserve">
<style type="text/css">
	.st0{fill:#F45254;}
	.st1{fill:#BC0F2A;}
	.st2{fill:#FFFFFF;}
</style>
<path class="st0" d="M463.2,136.9C463.2,136.9,463.2,137,463.2,136.9c-24.1-42-61.2-77.2-108.8-98.7C322.4,23.8,289,17,256.1,17
	c-91,0-177.9,52.3-217.9,140.6c-54.3,120.3-0.9,261.9,119.4,316.2c31.2,14.1,63.9,20.9,96.1,21.2c0,0,0,0,0,0c0,0,0,0,0,0
	c0.1,0,0.2-0.1,0.3-0.1c91.7,0.8,179.6-51.5,219.8-140.5C506.7,281.7,500.1,201.2,463.2,136.9z M465.3,170.3c0-0.1,0-0.3,0-0.4
	c0,0,0-0.1,0-0.1c0,0.3,0,0.5,0,0.8C465.3,170.5,465.3,170.4,465.3,170.3z M464.7,156.3c0-0.3,0-0.5,0-0.8c0-0.3,0-0.6,0-0.9
	c0,0.8,0.1,1.6,0.1,2.3C464.8,156.8,464.8,156.5,464.7,156.3z M463.7,141.9c0-0.2,0-0.4-0.1-0.5c-0.1-0.9-0.2-1.8-0.3-2.7
	c0.1,1.4,0.3,2.8,0.4,4.2C463.7,142.6,463.7,142.2,463.7,141.9z M464,145.9c0.1,1.4,0.2,2.8,0.3,4.2
	C464.3,148.7,464.2,147.3,464,145.9z"/>
<path class="st1" d="M473.8,354.4c32.9-72.7,26.3-153.2-10.6-217.5c17.2,162.2-68.8,312.3-209.5,358
	C345.5,495.8,433.6,443.5,473.8,354.4z"/>
<path class="st2" d="M189.9,180.6c-4.4-21.4-13.9-38.7-26.1-47.7c-5.9-4.4-12.5-6.9-19.4-6.9c-26.6,0-48.2,36.6-48.2,81.7
	c0,0.1,0,0.1,0,0.2c0,10.9,9.1,19.7,20.1,19.7h56.2c10.9,0,20-8.8,20.1-19.7c0-0.1,0-0.1,0-0.2C192.6,198.2,191.6,189.1,189.9,180.6
	z"/>
<path class="st2" d="M369.7,276.2h-258c-8.7,0-15.9,6.9-15.9,15.6c0,0.1,0,0.1,0,0.2c0,8.2,0.7,16.2,2,23.9
	c9.1,54.5,48.6,98.7,100.5,114.6c13.4,4.1,27.7,6.3,42.4,6.3c43.1,0,81.8-18.8,108.3-48.7c22.8-25.6,36.6-59.3,36.6-96.2
	c0-0.1,0-0.1,0-0.2C385.6,283.1,378.3,276.2,369.7,276.2z"/>
<circle class="st0" cx="165.8" cy="150.1" r="24.5"/>
<path class="st2" d="M382.5,180.6c-4.4-21.4-13.9-38.7-26.1-47.7c-5.9-4.4-12.5-6.9-19.4-6.9c-26.6,0-48.2,36.6-48.2,81.7
	c0,0.1,0,0.1,0,0.2c0,10.9,9.1,19.7,20.1,19.7h56.2c10.9,0,20-8.8,20.1-19.7c0-0.1,0-0.1,0-0.2C385.2,198.2,384.2,189.1,382.5,180.6
	z"/>
<circle class="st0" cx="358.4" cy="150.1" r="24.5"/>
<circle class="st2" cx="154.1" cy="143.6" r="7"/>
<circle class="st2" cx="350.9" cy="143.6" r="7"/>
</svg>
