<?xml version="1.0" encoding="utf-8"?>
<!-- Generator: Adobe Illustrator 25.1.0, SVG Export Plug-In . SVG Version: 6.00 Build 0)  -->
<svg version="1.1" id="Capa_1" xmlns="http://www.w3.org/2000/svg" xmlns:xlink="http://www.w3.org/1999/xlink" x="0px" y="0px"
	 viewBox="0 0 512 512" style="enable-background:new 0 0 512 512;" xml:space="preserve">
<style type="text/css">
	.st0{fill:#4C8056;}
	.st1{fill:#295E31;}
	.st2{fill:#7FB241;}
	.st3{fill:#F45254;}
	.st4{fill:#7F5B53;}
	.st5{opacity:0.3;}
	.st6{fill:#FFFFFF;}
	.st7{opacity:0.29;}
</style>
<path class="st0" d="M400.3,226.3c-59.7-59.7-143.1-73.2-186.2-30.1c-19.5,20.8-28.6,49.2-24.7,77.4c0.2,0,0.3,0,0.5,0v0.1
	c-0.2,0-0.4,0-0.6,0c0,0.1,0,0.1,0,0.2l0.8,8.5l158.8,154.5c1.6,0.3,3.2,0.5,4.8,0.7l0,0h0.1c6.9,0.8,13.9,0.7,20.6,0.1
	c0.1-0.2,0.1-0.3,0.2-0.5h0.1c-0.1,0.1-0.1,0.3-0.2,0.4c1.4-0.1,2.8-0.3,4.1-0.5l0,0l0,0c19.1-2.7,37.2-11.1,51.7-24.6
	C473.4,369.4,460,286.1,400.3,226.3z"/>
<g>
	<path class="st1" d="M208.2,272.9c-6.3,0-12.5,0.3-18.8,0.8c0,0.1,0,0.1,0,0.2l0.8,8.5L349,436.9c8.6,1.5,17.2,1.6,25.6,0.8
		c5.4-12.1,8.3-25.3,8.3-38.6C382.9,329.4,304.7,272.9,208.2,272.9z"/>
</g>
<g>
	<path class="st2" d="M362.2,391.9c-0.1,15.9-4.7,31.5-13.3,44.9c-23.8,38.6-77.4,65.5-139.7,65.5c-84.5,0-152.9-49.5-152.9-110.5
		c0-56.3,58.5-102.8,133.9-109.5c6.3-0.7,12.7-1,19-0.9C293.7,281.5,362.2,330.9,362.2,391.9z"/>
</g>
<g>
	<ellipse class="st3" cx="124.3" cy="391.9" rx="34" ry="42.5"/>
</g>
<path class="st4" d="M209.3,205c-1.9,0-3.7-0.6-5.2-1.8l-76.5-59.5c-2.4-1.9-3.6-4.9-3.2-7.9s2.4-5.6,5.2-6.7c2.8-1.1,6-0.7,8.4,1.2
	l76.5,59.5c2.9,2.2,4,6,2.8,9.5C216.1,202.7,212.9,205,209.3,205L209.3,205z"/>
<path class="st2" d="M277.8,9.6c2.1-0.2,4.2,0.6,5.7,2c1.5,1.5,2.3,3.6,2.2,5.7c-6.8,31.4-21.7,60.5-43.3,84.4
	c-31.4,30.7-56,32.3-70.2,18.5s-0.1-49.8,31.3-80.5C227.3,16.7,262,11,277.8,9.6z"/>
<path class="st4" d="M147.1,156.7c-3.4,0-6.5-2.1-7.8-5.2c-1.3-3.2-0.6-6.8,1.8-9.3l53.6-53.6c3.3-3.3,8.7-3.2,12,0.1
	c3.3,3.3,3.3,8.6,0.1,12l-53.6,53.6C151.6,155.8,149.4,156.7,147.1,156.7L147.1,156.7z"/>
<g class="st5">
	<path class="st6" d="M133.9,311.9c10.2-2.9,21.4-2.5,32,0.4c10.5,3.1,20.3,8.8,28.8,16.1c8.3,7.3,16.5,15.6,20.5,26.2
		c4,10.4,5.8,21.7,3.4,32.7l-1.5,0.2c-5.9-9.4-10.4-18.1-15.6-26.3c-5.2-8-9-16.9-15.4-24.2c-12.5-14.5-31.2-24.7-52-23.7
		L133.9,311.9z"/>
</g>
<g class="st7">
	<path class="st6" d="M241.4,198.6c3.3-4.8,8.6-8.2,14.5-10.1c5.9-1.9,12.3-2.1,18.4-1.1c6,0.9,12.7,1.8,17.4,6.1
		c4.6,4.1,8.3,9.4,9.1,16.3l-1.1,1c-6.8-1-11.5-2.7-16.1-4.5c-4.6-1.5-7.9-5.3-12.4-7.2c-4.4-1.8-9.2-3-14-3.1
		c-4.9-0.2-9.9,1-14.6,3.7L241.4,198.6z"/>
</g>
</svg>
