<?xml version="1.0" encoding="utf-8"?>
<!-- Generator: Adobe Illustrator 25.2.2, SVG Export Plug-In . SVG Version: 6.00 Build 0)  -->
<svg version="1.1" id="Layer_1" xmlns="http://www.w3.org/2000/svg" xmlns:xlink="http://www.w3.org/1999/xlink" x="0px" y="0px"
	 viewBox="0 0 40 40" style="enable-background:new 0 0 40 40;" xml:space="preserve">
<style type="text/css">
	.st0{fill:#FFFFFF;}
</style>
<path class="st0" d="M38.5,9.3c0-0.1,0-0.1,0-0.2c0,0,0,0,0-0.1c0-0.1-0.1-0.1-0.1-0.2l-7.5-7.5c-0.1-0.1-0.1-0.1-0.2-0.1
	c0,0,0,0-0.1,0c-0.1,0-0.1,0-0.2,0c0,0,0,0,0,0H11.7c-1.7,0-3.1,1.4-3.1,3.1V9c-4.3,1.9-7.1,6.1-7.1,10.8s2.8,9,7.1,10.8v5
	c0,1.7,1.4,3.1,3.1,3.1h23.8c1.7,0,3.1-1.4,3.1-3.1L38.5,9.3C38.5,9.4,38.5,9.3,38.5,9.3z M36.4,8.7h-4.7c-0.3,0-0.6-0.3-0.6-0.6
	V3.4L36.4,8.7z M2.7,19.8c0-2.8,1.1-5.5,3.1-7.5s4.7-3.1,7.5-3.1c0.4,0,0.7,0,1.1,0.1c4.8,0.5,8.7,4.2,9.4,9
	c0.1,0.5,0.1,1.1,0.1,1.6c0,2-0.6,4-1.6,5.7c-0.8,1.4-2,2.5-3.3,3.3c-3.3,2.1-7.4,2.2-10.8,0.3C4.8,27.2,2.7,23.7,2.7,19.8z
	 M20.6,29.2c0.1-0.1,0.2-0.1,0.3-0.2c0.3-0.2,0.6-0.5,0.9-0.8c0.3-0.3,0.5-0.6,0.8-0.9c0.1-0.1,0.1-0.2,0.2-0.3
	c0.1-0.1,0.2-0.2,0.2-0.3l5.3,5.3c0.4,0.3,0.6,0.8,0.6,1.3c0,0.5-0.2,1-0.6,1.3c-0.7,0.7-1.9,0.7-2.6,0l-5.3-5.3
	C20.4,29.4,20.5,29.3,20.6,29.2z M35.4,37.5H11.7c-1,0-1.9-0.8-1.9-1.9v-4.5c0,0,0.1,0,0.1,0c0.1,0,0.2,0.1,0.3,0.1
	c0.2,0.1,0.5,0.1,0.7,0.2c0.1,0,0.2,0,0.4,0.1c0.2,0,0.5,0.1,0.7,0.1c0.1,0,0.2,0,0.3,0c0.3,0,0.7,0,1,0c2.1,0,4.1-0.5,5.9-1.6
	l5.5,5.5c0.8,0.8,2,1.2,3.1,0.9c1.1-0.3,2-1.2,2.3-2.3c0.3-1.1-0.1-2.3-0.9-3.1l-5.5-5.5c1-1.8,1.6-3.8,1.6-5.9c0-0.4,0-0.8-0.1-1.2
	c-0.3-2.7-1.5-5.3-3.4-7.2c-2.2-2.2-5.2-3.5-8.4-3.5c-0.4,0-0.7,0-1,0c-0.1,0-0.2,0-0.3,0c-0.2,0-0.5,0.1-0.7,0.1
	c-0.1,0-0.2,0-0.4,0.1c-0.2,0-0.5,0.1-0.7,0.2c-0.1,0-0.2,0.1-0.3,0.1c0,0-0.1,0-0.1,0V4.4c0-1,0.8-1.9,1.9-1.9h18.1v5.6
	c0,1,0.8,1.9,1.9,1.9h5.6v25.6C37.3,36.7,36.5,37.5,35.4,37.5z"/>
<path class="st0" d="M27.3,5.6C27.3,5.3,27,5,26.7,5H12.9c-0.3,0-0.6,0.3-0.6,0.6s0.3,0.6,0.6,0.6h13.8C27,6.2,27.3,6,27.3,5.6z"/>
<path class="st0" d="M34.2,16.2h-7.5c-0.3,0-0.6,0.3-0.6,0.6s0.3,0.6,0.6,0.6h7.5c0.3,0,0.6-0.3,0.6-0.6S34.5,16.2,34.2,16.2z"/>
<path class="st0" d="M34.2,20h-7.5c-0.3,0-0.6,0.3-0.6,0.6s0.3,0.6,0.6,0.6h7.5c0.3,0,0.6-0.3,0.6-0.6S34.5,20,34.2,20z"/>
<path class="st0" d="M34.8,24.4c0-0.3-0.3-0.6-0.6-0.6H26c-0.3,0-0.6,0.3-0.6,0.6S25.7,25,26,25h8.1C34.5,25,34.8,24.7,34.8,24.4z"
	/>
<path class="st0" d="M34.8,28.1c0-0.3-0.3-0.6-0.6-0.6h-5.6c-0.3,0-0.6,0.3-0.6,0.6c0,0.3,0.3,0.6,0.6,0.6h5.6
	C34.5,28.8,34.8,28.5,34.8,28.1z"/>
<path class="st0" d="M27.3,9.4c0-0.3-0.3-0.6-0.6-0.6h-5C21.3,8.7,21,9,21,9.4s0.3,0.6,0.6,0.6h5C27,10,27.3,9.7,27.3,9.4z"/>
<path class="st0" d="M34.8,13.1c0-0.3-0.3-0.6-0.6-0.6h-9.4c-0.3,0-0.6,0.3-0.6,0.6s0.3,0.6,0.6,0.6h9.4
	C34.5,13.7,34.8,13.5,34.8,13.1z"/>
<path class="st0" d="M11,16.9h4.4c0.3,0,0.6-0.3,0.6-0.6s-0.3-0.6-0.6-0.6H11c-0.3,0-0.6,0.3-0.6,0.6S10.7,16.9,11,16.9z"/>
<path class="st0" d="M18.5,20c0-0.3-0.3-0.6-0.6-0.6H8.5c-0.3,0-0.6,0.3-0.6,0.6s0.3,0.6,0.6,0.6h9.4C18.3,20.6,18.5,20.3,18.5,20z"
	/>
<path class="st0" d="M15.4,23.1H11c-0.3,0-0.6,0.3-0.6,0.6s0.3,0.6,0.6,0.6h4.4c0.3,0,0.6-0.3,0.6-0.6S15.8,23.1,15.4,23.1z"/>
<path class="st0" d="M17.8,28.1c1.5-0.8,2.8-2,3.6-3.5c0-0.1,0.1-0.2,0.1-0.3c0,0,0-0.1,0.1-0.1c0.1-0.2,0.2-0.4,0.3-0.6
	c0.1-0.2,0.1-0.4,0.2-0.5c0-0.1,0-0.1,0.1-0.2c1.6-4.6-0.6-9.7-5.1-11.6c-4.5-2-9.7-0.1-12,4.2C4.3,16.8,4,18.3,4,19.8
	c0,3.3,1.7,6.4,4.6,8.1C11.4,29.6,14.9,29.6,17.8,28.1L17.8,28.1z M9.5,27c-0.7-0.4-1.3-0.8-1.9-1.4c-0.4-0.4-0.7-0.8-1-1.2
	c-0.1-0.2-0.3-0.4-0.4-0.7c-1.9-3.6-0.9-7.9,2.3-10.3s7.7-2.1,10.6,0.8c2.5,2.5,3.1,6.4,1.4,9.6v0c-0.7,1.4-1.9,2.5-3.3,3.3
	C14.8,28.3,11.9,28.3,9.5,27L9.5,27z"/>
<path class="st0" d="M35.4,31.3c-0.3,0-0.6,0.3-0.6,0.6v2.5c0,0.3-0.3,0.6-0.6,0.6h-2.5c-0.3,0-0.6,0.3-0.6,0.6s0.3,0.6,0.6,0.6h2.5
	c1,0,1.9-0.8,1.9-1.9v-2.5C36,31.5,35.8,31.3,35.4,31.3z"/>
</svg>
