<?xml version="1.0" encoding="utf-8"?>
<!-- Generator: Adobe Illustrator 25.2.2, SVG Export Plug-In . SVG Version: 6.00 Build 0)  -->
<svg version="1.1" id="Capa_1" xmlns="http://www.w3.org/2000/svg" xmlns:xlink="http://www.w3.org/1999/xlink" x="0px" y="0px"
	 viewBox="0 0 40 40" style="enable-background:new 0 0 40 40;" xml:space="preserve">
<style type="text/css">
	.st0{fill:#FFFFFF;}
</style>
<g>
	<g>
		<g>
			<path class="st0" d="M37.6,38.2V14.2c0-0.4-0.3-0.7-0.7-0.7h-6.5c-0.4,0-0.7,0.3-0.7,0.7v24.1h-1.3v-15c0-0.4-0.3-0.7-0.7-0.7
				h-6.5c-0.4,0-0.7,0.3-0.7,0.7v15h-1.3V16.8c0-0.4-0.3-0.7-0.7-0.7h-6.5c-0.4,0-0.7,0.3-0.7,0.7v21.5h-1.3V25.9
				c0-0.4-0.3-0.7-0.7-0.7H3.1c-0.4,0-0.7,0.3-0.7,0.7v12.4h-2v1.3h39v-1.3H37.6z M8.9,38.2H3.7V26.5h5.2V38.2z M18,38.2h-5.2V17.4
				H18V38.2z M27.2,38.2H22V23.9h5.2V38.2z M36.3,38.2h-5.2V14.8h5.2V38.2z"/>
			<path class="st0" d="M4.5,18.2c0.5,0.4,1.2,0.5,1.8,0.5c1.8,0,3.3-1.5,3.3-3.3c0-0.6-0.2-1.3-0.5-1.8l4.6-4.6
				c0.5,0.4,1.1,0.5,1.8,0.5c0.2,0,0.4,0,0.6-0.1c0.6-0.1,1.2-0.4,1.7-0.8l3.9,3c-0.6,1.7,0.2,3.6,1.9,4.2c1.7,0.6,3.6-0.2,4.2-1.9
				c0.4-1,0.3-2.1-0.3-3l4.6-4.6c1.5,1,3.5,0.6,4.5-0.9C37.4,4,37,2,35.5,1C34,0,31.9,0.4,31,1.9c-0.7,1.1-0.7,2.5,0,3.6l-4.6,4.6
				c-1.3-0.9-3-0.7-4.1,0.4c0,0,0,0,0,0l-3.8-2.9c0.7-1.6,0-3.6-1.6-4.3c-1.6-0.7-3.6,0-4.3,1.6c-0.5,1-0.4,2.2,0.3,3.1l-4.6,4.6
				c-1.5-1-3.5-0.6-4.5,0.9C2.6,15.2,3,17.2,4.5,18.2z M33.7,1.8c1.1,0,2,0.9,2,2s-0.9,2-2,2c-1.1,0-2-0.9-2-2S32.6,1.8,33.7,1.8z
				 M23.2,11.5c0.4-0.4,0.9-0.6,1.4-0.6c1.1,0,2,0.9,2,2c0,0.5-0.2,1-0.6,1.4c-0.8,0.7-2,0.7-2.8,0C22.4,13.5,22.4,12.2,23.2,11.5z
				 M13.8,5.2C13.8,5.2,13.8,5.2,13.8,5.2c0.3-0.4,0.7-0.7,1.3-0.8c0.1,0,0.2,0,0.3,0c0.4,0,0.8,0.1,1.1,0.4
				c0.9,0.6,1.1,1.8,0.5,2.7c-0.6,0.9-1.8,1.1-2.7,0.5C13.4,7.3,13.2,6.1,13.8,5.2z M5,14.1C5,14.1,5,14.1,5,14.1
				c0.8-0.8,2-0.8,2.8,0c0.8,0.8,0.8,2,0,2.8c-0.8,0.7-2,0.7-2.8,0C4.2,16.1,4.2,14.8,5,14.1z"/>
		</g>
	</g>
</g>
</svg>
