<?xml version="1.0" encoding="utf-8"?>
<!-- Generator: Adobe Illustrator 25.2.1, SVG Export Plug-In . SVG Version: 6.00 Build 0)  -->
<svg version="1.1" id="Capa_1" xmlns="http://www.w3.org/2000/svg" xmlns:xlink="http://www.w3.org/1999/xlink" x="0px" y="0px"
	 viewBox="0 0 512 512" style="enable-background:new 0 0 512 512;" xml:space="preserve">
<style type="text/css">
	.st0{fill:#266ABD;}
	.st1{fill:#4097F0;}
	.st2{fill:#666666;}
	.st3{fill:#FFFFFF;}
	.st4{fill:none;stroke:#CCCCCC;stroke-width:2;stroke-miterlimit:10;}
	.st5{fill:#B3B3B3;}
	.st6{fill:#CCCCCC;}
</style>
<path class="st0" d="M444,445.7c-6.9,6.9-10.8,15.6-12.1,24.5L328.3,366.6l36.6-36.6l103.6,103.6C459.5,434.9,450.9,438.8,444,445.7
	z"/>
<circle class="st1" cx="463.1" cy="464.9" r="43.1"/>
<rect x="370.2" y="380.6" transform="matrix(0.7071 -0.7071 0.7071 0.7071 -165.2706 396.6089)" class="st2" width="51.8" height="34.5"/>
<path class="st3" d="M457.1,479.6c2.2,0,4.4-0.8,6.1-2.5l12.2-12.2c3.4-3.4,3.4-8.8,0-12.2c-3.4-3.4-8.8-3.4-12.2,0L451,464.9
	c-3.4,3.4-3.4,8.8,0,12.2C452.6,478.8,454.9,479.6,457.1,479.6z"/>
<path class="st4" d="M195.9,263"/>
<g>
	<polygon class="st3" points="245.7,186.5 270.5,211.2 242.3,239.4 245.1,242.2 273.3,214 78.9,19.6 6.4,7.5 217.3,214.9 	"/>
	<polygon class="st5" points="245.1,242.2 242.3,239.4 209.5,272.2 212.3,275 	"/>
	<polygon class="st6" points="6.4,7.5 5.7,7.4 17.9,80.6 184.8,247.5 217.3,214.9 	"/>
	<polygon class="st3" points="303.8,244.4 303.7,244.4 327.7,268.4 300,296.1 336.4,332 363.9,304.5 	"/>
	<polygon class="st6" points="266.7,329.4 302.8,365.6 336.4,332 300,296.1 	"/>
	<polygon class="st6" points="275.8,272.4 303.7,244.4 301,241.7 240,302.7 266.7,329.4 266.7,329.4 242.7,305.5 	"/>
	<polygon class="st6" points="300,296.1 327.7,268.4 303.7,244.4 275.8,272.4 	"/>
	<polygon class="st5" points="275.8,272.4 242.7,305.5 266.7,329.4 300,296.1 	"/>
</g>
<path class="st0" d="M68,445.7c6.9,6.9,10.8,15.6,12.1,24.5l103.6-103.6L147.1,330L43.5,433.6C52.5,434.9,61.1,438.8,68,445.7z"/>
<circle class="st1" cx="48.8" cy="464.9" r="43.1"/>
<polygon class="st3" points="433.1,19.6 143.5,309.2 171.6,337.3 504.5,7.7 "/>
<polygon class="st6" points="171.6,337.3 204.5,370.2 494.1,80.6 506.3,7.4 504.5,7.7 "/>
<rect x="98.7" y="371.9" transform="matrix(0.7071 -0.7071 0.7071 0.7071 -247.3158 198.487)" class="st2" width="34.5" height="51.8"/>
<path class="st3" d="M54.9,479.6c-2.2,0-4.4-0.8-6.1-2.5l-12.2-12.2c-3.4-3.4-3.4-8.8,0-12.2c3.4-3.4,8.8-3.4,12.2,0L61,464.9
	c3.4,3.4,3.4,8.8,0,12.2C59.3,478.8,57.1,479.6,54.9,479.6z"/>
<polygon class="st1" points="316.8,403.9 402.2,318.5 402.2,281.9 365.6,281.9 280.2,367.3 280.2,403.9 "/>
<polygon class="st1" points="195.2,403.9 109.8,318.5 109.8,281.9 146.4,281.9 231.8,367.3 231.8,403.9 "/>
</svg>
