<?xml version="1.0" encoding="utf-8"?>
<!-- Generator: Adobe Illustrator 25.1.0, SVG Export Plug-In . SVG Version: 6.00 Build 0)  -->
<svg version="1.1" id="Capa_1" xmlns="http://www.w3.org/2000/svg" xmlns:xlink="http://www.w3.org/1999/xlink" x="0px" y="0px"
	 viewBox="0 0 512 512" style="enable-background:new 0 0 512 512;" xml:space="preserve">
<style type="text/css">
	.st0{fill:#B3B3B3;}
	.st1{fill:#808080;}
	.st2{fill:#FAFAFA;}
	.st3{fill:#266ABD;}
	.st4{fill:#9C9C9C;}
	.st5{fill:#4097F0;}
	.st6{fill:#4D4D4D;}
	.st7{fill:#E6E6E6;}
	.st8{fill:#1B1464;}
</style>
<g>
	<g>
		<path class="st0" d="M419,472.7H93c-8.2,0-14.9-6.7-14.9-14.9c0-8.2,6.7-14.9,14.9-14.9h326c8.2,0,14.9,6.7,14.9,14.9
			C433.8,466.1,427.2,472.7,419,472.7z"/>
	</g>
	<g>
		<path class="st0" d="M423.1,494.7l-95.7-165.7c-4.1-7.1-1.7-16.2,5.4-20.3c7.1-4.1,16.2-1.7,20.3,5.4l95.7,165.7
			c4.1,7.1,1.7,16.2-5.4,20.3C436.3,504.3,427.2,501.8,423.1,494.7L423.1,494.7z"/>
	</g>
	<g>
		<path class="st0" d="M68.6,500.2c-7.1-4.1-9.5-13.2-5.4-20.3l95.7-165.7c4.1-7.1,13.2-9.5,20.3-5.4s9.5,13.2,5.4,20.3L88.9,494.7
			C84.8,501.8,75.7,504.3,68.6,500.2L68.6,500.2z"/>
	</g>
	<path class="st1" d="M134,357.1l-43.1,74.7c5.3,2.6,11.3,4.1,17.6,4.1h14.3l45.5-78.8L134,357.1L134,357.1z"/>
	<path class="st1" d="M378,357.1h-34.3l45.5,78.8h14.3c6.3,0,12.3-1.5,17.6-4.1L378,357.1z"/>
	<path class="st2" d="M443.5,345.1V82.9c0-40.4-32.7-73.1-73.1-73.1H141.5c-40.4,0-73.1,32.7-73.1,73.1v262.2H443.5z"/>
	<path class="st3" d="M68.5,329v38.8c0,22.1,17.9,40.1,40.1,40.1h294.9c22.1,0,40.1-17.9,40.1-40.1V329H68.5z"/>
	<path class="st4" d="M204.9,78.1V53.8c0-3.8,3.1-6.8,6.8-6.8h88.6c3.8,0,6.8,3.1,6.8,6.8v24.4c0,3.8-3.1,6.8-6.8,6.8h-88.6
		C207.9,84.9,204.9,81.9,204.9,78.1L204.9,78.1z"/>
	<path class="st5" d="M107.4,231.4v-100c0-9.1,7.4-16.6,16.6-16.6h264c9.1,0,16.6,7.4,16.6,16.6v100c0,9.1-7.4,16.6-16.6,16.6H124
		C114.9,248,107.4,240.6,107.4,231.4L107.4,231.4z"/>
	<path class="st6" d="M338.3,329c0-17.5,14.2-31.7,31.7-31.7H140.6c17.5,0,31.7,14.2,31.7,31.7c0,17.5-14.2,31.7-31.7,31.7h229.5
		C352.5,360.8,338.3,346.6,338.3,329L338.3,329z"/>
	<circle class="st5" cx="140.6" cy="329" r="31.7"/>
	<circle class="st5" cx="370.1" cy="329" r="31.7"/>
	<path class="st7" d="M370.5,9.8h-39c40.4,0,73.1,32.7,73.1,73.1c0,0.4,0-11.4,0,262.2h39V82.9C443.5,42.5,410.8,9.8,370.5,9.8z"/>
	<path class="st8" d="M404.6,329v38.8c0,22.1-17.9,40.1-40.1,40.1h39c22.1,0,40.1-17.9,40.1-40.1V329H404.6z"/>
	<path class="st3" d="M388,114.9H124c-9.1,0-16.6,7.4-16.6,16.6v0.3h252.5c9.1,0,16.6,7.4,16.6,16.6V248H388
		c9.1,0,16.6-7.4,16.6-16.6v-100C404.6,122.3,397.1,114.9,388,114.9L388,114.9z"/>
</g>
</svg>
