<?xml version="1.0" encoding="utf-8"?>
<!-- Generator: Adobe Illustrator 16.0.0, SVG Export Plug-In . SVG Version: 6.00 Build 0)  -->
<!DOCTYPE svg PUBLIC "-//W3C//DTD SVG 1.1//EN" "http://www.w3.org/Graphics/SVG/1.1/DTD/svg11.dtd">
<svg version="1.1" id="Layer_3" xmlns="http://www.w3.org/2000/svg" xmlns:xlink="http://www.w3.org/1999/xlink" x="0px" y="0px"
	 width="1000px" height="1000px" viewBox="0 0 1000 1000" enable-background="new 0 0 1000 1000" xml:space="preserve">
<path id="XMLID_24_" fill="#FFFFFF" d="M99.185,212.612c0-32.309,12.582-62.683,35.427-85.527
	c22.845-22.846,53.218-35.428,85.526-35.428c32.308,0,62.682,12.582,85.527,35.427c22.846,22.845,35.427,53.219,35.427,85.527
	h-5.282c0-63.781-51.891-115.672-115.672-115.672c-63.782,0-115.671,51.89-115.671,115.672c0,63.781,51.889,115.67,115.671,115.67
	v5.283c-32.308,0-62.682-12.583-85.526-35.425C111.766,275.291,99.185,244.918,99.185,212.612z"/>
<linearGradient id="SVGID_1_" gradientUnits="userSpaceOnUse" x1="368.4053" y1="-965.0381" x2="406.501" y2="-965.0381" gradientTransform="matrix(1 0 0 1 404.7998 1159.0195)">
	<stop  offset="0" style="stop-color:#35438E"/>
	<stop  offset="1" style="stop-color:#C8465A"/>
</linearGradient>
<polygon fill="url(#SVGID_1_)" points="811.301,183.172 804.316,176.914 792.252,187.724 780.188,176.914 773.205,183.172 
	785.268,193.982 773.205,204.791 780.188,211.049 792.252,200.24 804.316,211.049 811.301,204.791 799.236,193.982 "/>
<linearGradient id="XMLID_2_" gradientUnits="userSpaceOnUse" x1="401.7124" y1="-658.061" x2="401.7124" y2="-791.2842" gradientTransform="matrix(1 0 0 1 404.7998 1159.0195)">
	<stop  offset="0" style="stop-color:#35438E"/>
	<stop  offset="1" style="stop-color:#C8465A"/>
</linearGradient>
<path id="XMLID_82_" fill="url(#XMLID_2_)" d="M773.205,500.958v-19.031c26.236,0,47.582-21.345,47.582-47.58
	c0-26.236-21.346-47.58-47.582-47.58v-19.032c36.73,0,66.613,29.881,66.613,66.612C839.818,471.076,809.938,500.958,773.205,500.958
	z"/>
<polygon id="XMLID_33_" fill="#FFFFFF" points="236.57,623.023 220.138,606.592 235.005,591.725 220.138,576.857 235.005,561.99 
	220.138,547.123 235.005,532.256 220.138,517.389 236.57,500.958 239.699,504.088 226.396,517.389 241.263,532.256 226.396,547.123 
	241.263,561.99 226.396,576.857 241.263,591.725 226.396,606.592 239.699,619.895 "/>
<polygon id="XMLID_27_" fill="#FFFFFF" points="219.257,623.023 202.826,606.592 217.693,591.725 202.826,576.857 217.693,561.99 
	202.826,547.123 217.693,532.256 202.826,517.389 219.257,500.958 222.387,504.088 209.083,517.389 223.951,532.256 
	209.083,547.123 223.951,561.99 209.083,576.857 223.951,591.725 209.083,606.592 222.387,619.895 "/>
<linearGradient id="XMLID_3_" gradientUnits="userSpaceOnUse" x1="-227.5015" y1="-302.8735" x2="-227.5015" y2="-418.9204" gradientTransform="matrix(1 0 0 1 404.7998 1159.0195)">
	<stop  offset="0" style="stop-color:#35438E"/>
	<stop  offset="1" style="stop-color:#C8465A"/>
</linearGradient>
<path id="XMLID_21_" fill="url(#XMLID_3_)" d="M177.3,856.146c-31.996,0-58.025-26.029-58.025-58.023S145.305,740.1,177.3,740.1
	c31.994,0,58.023,26.029,58.023,58.023C235.324,830.119,209.293,856.146,177.3,856.146z M177.3,752.695
	c-25.05,0-45.43,20.379-45.43,45.428s20.38,45.43,45.43,45.43c25.048,0,45.428-20.381,45.428-45.43
	C222.727,773.074,202.348,752.695,177.3,752.695z"/>
<circle id="XMLID_365_" fill="#FFFFFF" cx="656.676" cy="791.654" r="2.86"/>
<circle id="XMLID_364_" fill="#FFFFFF" cx="636.795" cy="791.654" r="2.86"/>
<circle id="XMLID_363_" fill="#FFFFFF" cx="537.387" cy="791.654" r="2.86"/>
<circle id="XMLID_362_" fill="#FFFFFF" cx="557.27" cy="791.654" r="2.86"/>
<circle id="XMLID_361_" fill="#FFFFFF" cx="577.15" cy="791.654" r="2.86"/>
<circle id="XMLID_360_" fill="#FFFFFF" cx="597.031" cy="791.654" r="2.86"/>
<circle id="XMLID_359_" fill="#FFFFFF" cx="616.914" cy="791.654" r="2.86"/>
<circle id="XMLID_358_" fill="#FFFFFF" cx="517.506" cy="791.654" r="2.86"/>
<circle id="XMLID_350_" fill="#FFFFFF" cx="656.676" cy="818.166" r="2.86"/>
<circle id="XMLID_349_" fill="#FFFFFF" cx="636.795" cy="818.166" r="2.86"/>
<circle id="XMLID_348_" fill="#FFFFFF" cx="537.387" cy="818.166" r="2.86"/>
<circle id="XMLID_347_" fill="#FFFFFF" cx="557.27" cy="818.166" r="2.86"/>
<circle id="XMLID_346_" fill="#FFFFFF" cx="577.15" cy="818.166" r="2.86"/>
<circle id="XMLID_345_" fill="#FFFFFF" cx="597.031" cy="818.166" r="2.86"/>
<circle id="XMLID_344_" fill="#FFFFFF" cx="616.914" cy="818.166" r="2.86"/>
<circle id="XMLID_343_" fill="#FFFFFF" cx="517.506" cy="818.166" r="2.86"/>
<circle id="XMLID_335_" fill="#FFFFFF" cx="656.676" cy="844.68" r="2.86"/>
<circle id="XMLID_334_" fill="#FFFFFF" cx="636.795" cy="844.68" r="2.86"/>
<circle id="XMLID_333_" fill="#FFFFFF" cx="537.387" cy="844.68" r="2.86"/>
<circle id="XMLID_332_" fill="#FFFFFF" cx="557.27" cy="844.68" r="2.86"/>
<circle id="XMLID_331_" fill="#FFFFFF" cx="577.15" cy="844.68" r="2.86"/>
<circle id="XMLID_330_" fill="#FFFFFF" cx="597.031" cy="844.68" r="2.86"/>
<circle id="XMLID_329_" fill="#FFFFFF" cx="616.914" cy="844.68" r="2.86"/>
<circle id="XMLID_328_" fill="#FFFFFF" cx="517.506" cy="844.68" r="2.86"/>
<circle id="XMLID_320_" fill="#FFFFFF" cx="656.676" cy="871.191" r="2.86"/>
<circle id="XMLID_319_" fill="#FFFFFF" cx="636.795" cy="871.191" r="2.86"/>
<circle id="XMLID_318_" fill="#FFFFFF" cx="537.387" cy="871.191" r="2.86"/>
<circle id="XMLID_317_" fill="#FFFFFF" cx="557.27" cy="871.191" r="2.86"/>
<circle id="XMLID_316_" fill="#FFFFFF" cx="577.15" cy="871.191" r="2.86"/>
<circle id="XMLID_315_" fill="#FFFFFF" cx="597.031" cy="871.191" r="2.86"/>
<circle id="XMLID_314_" fill="#FFFFFF" cx="616.914" cy="871.191" r="2.86"/>
<circle id="XMLID_313_" fill="#FFFFFF" cx="517.506" cy="871.191" r="2.86"/>
<circle id="XMLID_305_" fill="#FFFFFF" cx="656.676" cy="897.704" r="2.859"/>
<circle id="XMLID_304_" fill="#FFFFFF" cx="636.795" cy="897.704" r="2.859"/>
<circle id="XMLID_303_" fill="#FFFFFF" cx="537.387" cy="897.704" r="2.859"/>
<circle id="XMLID_302_" fill="#FFFFFF" cx="557.27" cy="897.704" r="2.859"/>
<circle id="XMLID_301_" fill="#FFFFFF" cx="577.15" cy="897.704" r="2.859"/>
<circle id="XMLID_300_" fill="#FFFFFF" cx="597.031" cy="897.704" r="2.859"/>
<circle id="XMLID_299_" fill="#FFFFFF" cx="616.914" cy="897.704" r="2.859"/>
<circle id="XMLID_298_" fill="#FFFFFF" cx="517.506" cy="897.704" r="2.859"/>
<circle id="XMLID_290_" fill="#FFFFFF" cx="656.676" cy="924.218" r="2.859"/>
<circle id="XMLID_289_" fill="#FFFFFF" cx="636.795" cy="924.218" r="2.859"/>
<circle id="XMLID_288_" fill="#FFFFFF" cx="537.387" cy="924.218" r="2.859"/>
<circle id="XMLID_287_" fill="#FFFFFF" cx="557.27" cy="924.218" r="2.859"/>
<circle id="XMLID_286_" fill="#FFFFFF" cx="577.15" cy="924.218" r="2.859"/>
<circle id="XMLID_285_" fill="#FFFFFF" cx="597.031" cy="924.218" r="2.859"/>
<circle id="XMLID_284_" fill="#FFFFFF" cx="616.914" cy="924.218" r="2.859"/>
<circle id="XMLID_283_" fill="#FFFFFF" cx="517.506" cy="924.218" r="2.859"/>
<circle id="XMLID_81_" fill="#C8465A" cx="338.223" cy="761.859" r="2.86"/>
<circle id="XMLID_80_" fill="#C8465A" cx="360.598" cy="761.859" r="2.86"/>
<circle id="XMLID_79_" fill="#C8465A" cx="382.972" cy="761.859" r="2.86"/>
<linearGradient id="SVGID_2_" gradientUnits="userSpaceOnUse" x1="-292.8047" y1="-640.9941" x2="-258.6704" y2="-640.9941" gradientTransform="matrix(1 0 0 1 404.7998 1159.0195)">
	<stop  offset="0" style="stop-color:#35438E"/>
	<stop  offset="1" style="stop-color:#C8465A"/>
</linearGradient>
<polygon fill="url(#SVGID_2_)" points="146.129,507.217 139.872,500.958 129.063,511.768 118.253,500.958 111.995,507.217 
	122.805,518.025 111.995,528.836 118.253,535.092 129.063,524.285 139.872,535.092 146.129,528.836 135.32,518.025 "/>
</svg>
