<?xml version="1.0" encoding="utf-8"?>
<!-- Generator: Adobe Illustrator 16.0.0, SVG Export Plug-In . SVG Version: 6.00 Build 0)  -->
<!DOCTYPE svg PUBLIC "-//W3C//DTD SVG 1.1//EN" "http://www.w3.org/Graphics/SVG/1.1/DTD/svg11.dtd">
<svg version="1.1" id="Layer_4" xmlns="http://www.w3.org/2000/svg" xmlns:xlink="http://www.w3.org/1999/xlink" x="0px" y="0px"
	 width="1000px" height="1000px" viewBox="0 0 1000 1000" enable-background="new 0 0 1000 1000" xml:space="preserve">
<path fill="#FFFFFF" d="M712.318,180.13l-13.852,13.852l13.852,13.851l13.852-13.851L712.318,180.13z M702.045,193.982
	l10.273-10.274l10.273,10.274l-10.273,10.273L702.045,193.982z"/>
<rect x="663.068" y="185.449" transform="matrix(-0.707 0.7072 -0.7072 -0.707 1283.623 -143.799)" fill="#FFFFFF" width="17.058" height="17.059"/>
<path fill="#FFFFFF" d="M439.556,188.248l-24.362-90.925l66.561-66.561l90.922,24.363l24.363,90.925l-66.56,66.56L439.556,188.248z
	 M442.127,185.68l85.655,22.95l-22.951-85.656l-85.656-22.951L442.127,185.68z M507.874,122.158l22.951,85.655l62.704-62.703
	l-22.953-85.655L507.874,122.158z M419.993,96.979l85.656,22.95l62.703-62.703l-85.656-22.952L419.993,96.979z"/>
<polygon fill="#FFFFFF" points="140.267,446.833 129.063,458.036 117.856,446.833 111.372,453.318 122.575,464.523 111.372,475.728 
	117.856,482.212 129.063,471.01 140.267,482.212 146.752,475.728 135.548,464.523 146.752,453.318 "/>
<polygon fill="#FFFFFF" points="291.8,863.384 357.043,928.634 365.593,928.634 291.8,854.831 "/>
<polygon fill="#FFFFFF" points="291.8,840.69 379.735,928.634 388.288,928.634 291.8,832.138 "/>
<polygon fill="#FFFFFF" points="291.8,817.993 402.428,928.634 410.979,928.634 291.8,809.442 "/>
<polygon fill="#FFFFFF" points="291.8,886.079 334.35,928.634 342.9,928.634 291.8,877.528 "/>
<polygon fill="#FFFFFF" points="291.8,908.778 311.659,928.634 320.209,928.634 291.8,900.226 "/>
<polygon fill="#FFFFFF" points="291.8,928.634 297.515,928.634 291.8,922.919 "/>
<polygon fill="#FFFFFF" points="291.8,791.024 291.8,795.3 425.123,928.634 429.396,928.634 429.396,924.358 296.078,791.024 "/>
<polygon fill="#FFFFFF" points="400.991,791.024 429.396,819.435 429.396,810.882 409.542,791.024 "/>
<polygon fill="#FFFFFF" points="310.217,791.024 429.396,910.218 429.396,901.665 318.768,791.024 "/>
<polygon fill="#FFFFFF" points="378.297,791.024 429.396,842.128 429.396,833.575 386.847,791.024 "/>
<polygon fill="#FFFFFF" points="429.396,796.739 429.396,791.024 423.682,791.024 "/>
<polygon fill="#FFFFFF" points="332.912,791.024 429.396,887.521 429.396,878.968 341.462,791.024 "/>
<polygon fill="#FFFFFF" points="355.603,791.024 429.396,864.823 429.396,856.272 364.154,791.024 "/>
<polygon fill="#FFFFFF" points="792.156,645.756 775.747,662.165 792.156,678.574 777.475,693.254 780.928,696.707 799.062,678.574 
	782.654,662.165 799.062,645.756 782.654,629.349 799.062,612.941 782.654,596.533 799.062,580.125 780.928,561.99 777.475,565.443 
	792.156,580.125 775.747,596.533 792.156,612.941 775.747,629.349 "/>
<polygon fill="#FFFFFF" points="800.035,561.99 796.58,565.443 811.264,580.125 794.854,596.533 811.264,612.941 794.854,629.349 
	811.264,645.756 794.854,662.165 811.264,678.574 796.58,693.254 800.035,696.707 818.169,678.574 801.762,662.165 818.169,645.756 
	801.762,629.349 818.169,612.941 801.762,596.533 818.169,580.125 "/>
<circle id="XMLID_54_" fill="#FFFFFF" cx="776.066" cy="269.813" r="2.86"/>
<circle id="XMLID_46_" fill="#FFFFFF" cx="776.066" cy="292.188" r="2.86"/>
<circle id="XMLID_37_" fill="#FFFFFF" cx="776.066" cy="314.563" r="2.86"/>
</svg>
