<svg width="44" height="44" fill="none" xmlns="http://www.w3.org/2000/svg">
  <path fill-rule="evenodd" clip-rule="evenodd" d="M3.252 0A3.252 3.252 0 000 3.252v37.496A3.252 3.252 0 003.252 44h36.887a3.252 3.252 0 003.252-3.252V3.252A3.252 3.252 0 0040.139 0H3.252zM34.9 11.165c.176-1.208-.646-2.33-1.837-2.509-4.495-.674-8.754 3.376-13.297 12.148-3.567 6.888-6.775 10.35-8.96 10.186-1.2-.09-2.245.824-2.334 2.04-.088 1.217.813 2.277 2.013 2.367 4.423.331 8.625-3.822 13.14-12.539 3.535-6.827 6.693-10.147 8.801-9.83 1.19.177 2.298-.656 2.474-1.864z" fill="#414141"/>

</svg>
